M48
;DRILL file {KiCad 4.0.7} date 04/27/20 15:33:51
;FORMAT={-:-/ absolute / metric / decimal}
FMAT,2
METRIC,TZ
T1C0.800
T2C1.000
T3C1.100
T4C1.320
%
G90
G05
M71
T1
X147.066Y102.87
X147.32Y85.09
X149.566Y102.87
X157.48Y85.09
X158.242Y100.33
X158.242Y102.83
T2
X121.92Y102.616
X122.174Y89.916
X127.Y102.616
X127.254Y89.916
X132.334Y89.916
X132.334Y102.362
X137.414Y89.916
X137.414Y102.362
X153.416Y90.424
X158.496Y90.424
X163.576Y93.98
X163.576Y96.52
T3
X143.002Y94.234
X145.542Y94.234
X148.082Y94.234
T4
X110.236Y91.266
X110.236Y96.266
T0
M30
