G04 #@! TF.FileFunction,Legend,Top*
%FSLAX46Y46*%
G04 Gerber Fmt 4.6, Leading zero omitted, Abs format (unit mm)*
G04 Created by KiCad (PCBNEW 4.0.7) date 04/27/20 15:33:10*
%MOMM*%
%LPD*%
G01*
G04 APERTURE LIST*
%ADD10C,0.100000*%
%ADD11C,0.300000*%
%ADD12C,0.120000*%
%ADD13C,0.150000*%
G04 APERTURE END LIST*
D10*
D11*
X139904002Y-111192571D02*
X140904002Y-111192571D01*
X140261145Y-112692571D01*
X141689716Y-111835429D02*
X141546858Y-111764000D01*
X141475430Y-111692571D01*
X141404001Y-111549714D01*
X141404001Y-111478286D01*
X141475430Y-111335429D01*
X141546858Y-111264000D01*
X141689716Y-111192571D01*
X141975430Y-111192571D01*
X142118287Y-111264000D01*
X142189716Y-111335429D01*
X142261144Y-111478286D01*
X142261144Y-111549714D01*
X142189716Y-111692571D01*
X142118287Y-111764000D01*
X141975430Y-111835429D01*
X141689716Y-111835429D01*
X141546858Y-111906857D01*
X141475430Y-111978286D01*
X141404001Y-112121143D01*
X141404001Y-112406857D01*
X141475430Y-112549714D01*
X141546858Y-112621143D01*
X141689716Y-112692571D01*
X141975430Y-112692571D01*
X142118287Y-112621143D01*
X142189716Y-112549714D01*
X142261144Y-112406857D01*
X142261144Y-112121143D01*
X142189716Y-111978286D01*
X142118287Y-111906857D01*
X141975430Y-111835429D01*
X143189715Y-111192571D02*
X143332572Y-111192571D01*
X143475429Y-111264000D01*
X143546858Y-111335429D01*
X143618287Y-111478286D01*
X143689715Y-111764000D01*
X143689715Y-112121143D01*
X143618287Y-112406857D01*
X143546858Y-112549714D01*
X143475429Y-112621143D01*
X143332572Y-112692571D01*
X143189715Y-112692571D01*
X143046858Y-112621143D01*
X142975429Y-112549714D01*
X142904001Y-112406857D01*
X142832572Y-112121143D01*
X142832572Y-111764000D01*
X142904001Y-111478286D01*
X142975429Y-111335429D01*
X143046858Y-111264000D01*
X143189715Y-111192571D01*
X145046858Y-111192571D02*
X144332572Y-111192571D01*
X144261143Y-111906857D01*
X144332572Y-111835429D01*
X144475429Y-111764000D01*
X144832572Y-111764000D01*
X144975429Y-111835429D01*
X145046858Y-111906857D01*
X145118286Y-112049714D01*
X145118286Y-112406857D01*
X145046858Y-112549714D01*
X144975429Y-112621143D01*
X144832572Y-112692571D01*
X144475429Y-112692571D01*
X144332572Y-112621143D01*
X144261143Y-112549714D01*
X145546857Y-111192571D02*
X146046857Y-112692571D01*
X146546857Y-111192571D01*
X147261143Y-112692571D02*
X147118285Y-112621143D01*
X147046857Y-112549714D01*
X146975428Y-112406857D01*
X146975428Y-111978286D01*
X147046857Y-111835429D01*
X147118285Y-111764000D01*
X147261143Y-111692571D01*
X147475428Y-111692571D01*
X147618285Y-111764000D01*
X147689714Y-111835429D01*
X147761143Y-111978286D01*
X147761143Y-112406857D01*
X147689714Y-112549714D01*
X147618285Y-112621143D01*
X147475428Y-112692571D01*
X147261143Y-112692571D01*
X148618286Y-112692571D02*
X148475428Y-112621143D01*
X148404000Y-112478286D01*
X148404000Y-111192571D01*
X148975428Y-111692571D02*
X149546857Y-111692571D01*
X149189714Y-111192571D02*
X149189714Y-112478286D01*
X149261142Y-112621143D01*
X149404000Y-112692571D01*
X149546857Y-112692571D01*
X150689714Y-112692571D02*
X150689714Y-111906857D01*
X150618285Y-111764000D01*
X150475428Y-111692571D01*
X150189714Y-111692571D01*
X150046857Y-111764000D01*
X150689714Y-112621143D02*
X150546857Y-112692571D01*
X150189714Y-112692571D01*
X150046857Y-112621143D01*
X149975428Y-112478286D01*
X149975428Y-112335429D01*
X150046857Y-112192571D01*
X150189714Y-112121143D01*
X150546857Y-112121143D01*
X150689714Y-112049714D01*
X152046857Y-111692571D02*
X152046857Y-112906857D01*
X151975428Y-113049714D01*
X151904000Y-113121143D01*
X151761143Y-113192571D01*
X151546857Y-113192571D01*
X151404000Y-113121143D01*
X152046857Y-112621143D02*
X151904000Y-112692571D01*
X151618286Y-112692571D01*
X151475428Y-112621143D01*
X151404000Y-112549714D01*
X151332571Y-112406857D01*
X151332571Y-111978286D01*
X151404000Y-111835429D01*
X151475428Y-111764000D01*
X151618286Y-111692571D01*
X151904000Y-111692571D01*
X152046857Y-111764000D01*
X153332571Y-112621143D02*
X153189714Y-112692571D01*
X152904000Y-112692571D01*
X152761143Y-112621143D01*
X152689714Y-112478286D01*
X152689714Y-111906857D01*
X152761143Y-111764000D01*
X152904000Y-111692571D01*
X153189714Y-111692571D01*
X153332571Y-111764000D01*
X153404000Y-111906857D01*
X153404000Y-112049714D01*
X152689714Y-112192571D01*
X156046857Y-112692571D02*
X155546857Y-111978286D01*
X155189714Y-112692571D02*
X155189714Y-111192571D01*
X155761142Y-111192571D01*
X155904000Y-111264000D01*
X155975428Y-111335429D01*
X156046857Y-111478286D01*
X156046857Y-111692571D01*
X155975428Y-111835429D01*
X155904000Y-111906857D01*
X155761142Y-111978286D01*
X155189714Y-111978286D01*
X157261142Y-112621143D02*
X157118285Y-112692571D01*
X156832571Y-112692571D01*
X156689714Y-112621143D01*
X156618285Y-112478286D01*
X156618285Y-111906857D01*
X156689714Y-111764000D01*
X156832571Y-111692571D01*
X157118285Y-111692571D01*
X157261142Y-111764000D01*
X157332571Y-111906857D01*
X157332571Y-112049714D01*
X156618285Y-112192571D01*
X158618285Y-111692571D02*
X158618285Y-112906857D01*
X158546856Y-113049714D01*
X158475428Y-113121143D01*
X158332571Y-113192571D01*
X158118285Y-113192571D01*
X157975428Y-113121143D01*
X158618285Y-112621143D02*
X158475428Y-112692571D01*
X158189714Y-112692571D01*
X158046856Y-112621143D01*
X157975428Y-112549714D01*
X157903999Y-112406857D01*
X157903999Y-111978286D01*
X157975428Y-111835429D01*
X158046856Y-111764000D01*
X158189714Y-111692571D01*
X158475428Y-111692571D01*
X158618285Y-111764000D01*
X159975428Y-111692571D02*
X159975428Y-112692571D01*
X159332571Y-111692571D02*
X159332571Y-112478286D01*
X159403999Y-112621143D01*
X159546857Y-112692571D01*
X159761142Y-112692571D01*
X159903999Y-112621143D01*
X159975428Y-112549714D01*
X160904000Y-112692571D02*
X160761142Y-112621143D01*
X160689714Y-112478286D01*
X160689714Y-111192571D01*
X162118285Y-112692571D02*
X162118285Y-111906857D01*
X162046856Y-111764000D01*
X161903999Y-111692571D01*
X161618285Y-111692571D01*
X161475428Y-111764000D01*
X162118285Y-112621143D02*
X161975428Y-112692571D01*
X161618285Y-112692571D01*
X161475428Y-112621143D01*
X161403999Y-112478286D01*
X161403999Y-112335429D01*
X161475428Y-112192571D01*
X161618285Y-112121143D01*
X161975428Y-112121143D01*
X162118285Y-112049714D01*
X162618285Y-111692571D02*
X163189714Y-111692571D01*
X162832571Y-111192571D02*
X162832571Y-112478286D01*
X162903999Y-112621143D01*
X163046857Y-112692571D01*
X163189714Y-112692571D01*
X163904000Y-112692571D02*
X163761142Y-112621143D01*
X163689714Y-112549714D01*
X163618285Y-112406857D01*
X163618285Y-111978286D01*
X163689714Y-111835429D01*
X163761142Y-111764000D01*
X163904000Y-111692571D01*
X164118285Y-111692571D01*
X164261142Y-111764000D01*
X164332571Y-111835429D01*
X164404000Y-111978286D01*
X164404000Y-112406857D01*
X164332571Y-112549714D01*
X164261142Y-112621143D01*
X164118285Y-112692571D01*
X163904000Y-112692571D01*
X165046857Y-112692571D02*
X165046857Y-111692571D01*
X165046857Y-111978286D02*
X165118285Y-111835429D01*
X165189714Y-111764000D01*
X165332571Y-111692571D01*
X165475428Y-111692571D01*
D12*
X150621722Y-101690277D02*
G75*
G03X146010420Y-101690000I-2305722J-1179723D01*
G01*
X150621722Y-104049723D02*
G75*
G02X146010420Y-104050000I-2305722J1179723D01*
G01*
X150621722Y-104049723D02*
G75*
G03X150621580Y-101690000I-2305722J1179723D01*
G01*
X148316000Y-100320000D02*
X148316000Y-105420000D01*
X148356000Y-100320000D02*
X148356000Y-105420000D01*
X148396000Y-100321000D02*
X148396000Y-105419000D01*
X148436000Y-100322000D02*
X148436000Y-105418000D01*
X148476000Y-100324000D02*
X148476000Y-105416000D01*
X148516000Y-100327000D02*
X148516000Y-105413000D01*
X148556000Y-100331000D02*
X148556000Y-105409000D01*
X148596000Y-100335000D02*
X148596000Y-101890000D01*
X148596000Y-103850000D02*
X148596000Y-105405000D01*
X148636000Y-100339000D02*
X148636000Y-101890000D01*
X148636000Y-103850000D02*
X148636000Y-105401000D01*
X148676000Y-100345000D02*
X148676000Y-101890000D01*
X148676000Y-103850000D02*
X148676000Y-105395000D01*
X148716000Y-100351000D02*
X148716000Y-101890000D01*
X148716000Y-103850000D02*
X148716000Y-105389000D01*
X148756000Y-100357000D02*
X148756000Y-101890000D01*
X148756000Y-103850000D02*
X148756000Y-105383000D01*
X148796000Y-100364000D02*
X148796000Y-101890000D01*
X148796000Y-103850000D02*
X148796000Y-105376000D01*
X148836000Y-100372000D02*
X148836000Y-101890000D01*
X148836000Y-103850000D02*
X148836000Y-105368000D01*
X148876000Y-100381000D02*
X148876000Y-101890000D01*
X148876000Y-103850000D02*
X148876000Y-105359000D01*
X148916000Y-100390000D02*
X148916000Y-101890000D01*
X148916000Y-103850000D02*
X148916000Y-105350000D01*
X148956000Y-100400000D02*
X148956000Y-101890000D01*
X148956000Y-103850000D02*
X148956000Y-105340000D01*
X148996000Y-100410000D02*
X148996000Y-101890000D01*
X148996000Y-103850000D02*
X148996000Y-105330000D01*
X149037000Y-100422000D02*
X149037000Y-101890000D01*
X149037000Y-103850000D02*
X149037000Y-105318000D01*
X149077000Y-100434000D02*
X149077000Y-101890000D01*
X149077000Y-103850000D02*
X149077000Y-105306000D01*
X149117000Y-100446000D02*
X149117000Y-101890000D01*
X149117000Y-103850000D02*
X149117000Y-105294000D01*
X149157000Y-100460000D02*
X149157000Y-101890000D01*
X149157000Y-103850000D02*
X149157000Y-105280000D01*
X149197000Y-100474000D02*
X149197000Y-101890000D01*
X149197000Y-103850000D02*
X149197000Y-105266000D01*
X149237000Y-100488000D02*
X149237000Y-101890000D01*
X149237000Y-103850000D02*
X149237000Y-105252000D01*
X149277000Y-100504000D02*
X149277000Y-101890000D01*
X149277000Y-103850000D02*
X149277000Y-105236000D01*
X149317000Y-100520000D02*
X149317000Y-101890000D01*
X149317000Y-103850000D02*
X149317000Y-105220000D01*
X149357000Y-100537000D02*
X149357000Y-101890000D01*
X149357000Y-103850000D02*
X149357000Y-105203000D01*
X149397000Y-100555000D02*
X149397000Y-101890000D01*
X149397000Y-103850000D02*
X149397000Y-105185000D01*
X149437000Y-100574000D02*
X149437000Y-101890000D01*
X149437000Y-103850000D02*
X149437000Y-105166000D01*
X149477000Y-100594000D02*
X149477000Y-101890000D01*
X149477000Y-103850000D02*
X149477000Y-105146000D01*
X149517000Y-100614000D02*
X149517000Y-101890000D01*
X149517000Y-103850000D02*
X149517000Y-105126000D01*
X149557000Y-100636000D02*
X149557000Y-101890000D01*
X149557000Y-103850000D02*
X149557000Y-105104000D01*
X149597000Y-100658000D02*
X149597000Y-101890000D01*
X149597000Y-103850000D02*
X149597000Y-105082000D01*
X149637000Y-100681000D02*
X149637000Y-101890000D01*
X149637000Y-103850000D02*
X149637000Y-105059000D01*
X149677000Y-100705000D02*
X149677000Y-101890000D01*
X149677000Y-103850000D02*
X149677000Y-105035000D01*
X149717000Y-100730000D02*
X149717000Y-101890000D01*
X149717000Y-103850000D02*
X149717000Y-105010000D01*
X149757000Y-100757000D02*
X149757000Y-101890000D01*
X149757000Y-103850000D02*
X149757000Y-104983000D01*
X149797000Y-100784000D02*
X149797000Y-101890000D01*
X149797000Y-103850000D02*
X149797000Y-104956000D01*
X149837000Y-100812000D02*
X149837000Y-101890000D01*
X149837000Y-103850000D02*
X149837000Y-104928000D01*
X149877000Y-100842000D02*
X149877000Y-101890000D01*
X149877000Y-103850000D02*
X149877000Y-104898000D01*
X149917000Y-100873000D02*
X149917000Y-101890000D01*
X149917000Y-103850000D02*
X149917000Y-104867000D01*
X149957000Y-100905000D02*
X149957000Y-101890000D01*
X149957000Y-103850000D02*
X149957000Y-104835000D01*
X149997000Y-100938000D02*
X149997000Y-101890000D01*
X149997000Y-103850000D02*
X149997000Y-104802000D01*
X150037000Y-100973000D02*
X150037000Y-101890000D01*
X150037000Y-103850000D02*
X150037000Y-104767000D01*
X150077000Y-101009000D02*
X150077000Y-101890000D01*
X150077000Y-103850000D02*
X150077000Y-104731000D01*
X150117000Y-101047000D02*
X150117000Y-101890000D01*
X150117000Y-103850000D02*
X150117000Y-104693000D01*
X150157000Y-101087000D02*
X150157000Y-101890000D01*
X150157000Y-103850000D02*
X150157000Y-104653000D01*
X150197000Y-101128000D02*
X150197000Y-101890000D01*
X150197000Y-103850000D02*
X150197000Y-104612000D01*
X150237000Y-101171000D02*
X150237000Y-101890000D01*
X150237000Y-103850000D02*
X150237000Y-104569000D01*
X150277000Y-101216000D02*
X150277000Y-101890000D01*
X150277000Y-103850000D02*
X150277000Y-104524000D01*
X150317000Y-101264000D02*
X150317000Y-101890000D01*
X150317000Y-103850000D02*
X150317000Y-104476000D01*
X150357000Y-101314000D02*
X150357000Y-101890000D01*
X150357000Y-103850000D02*
X150357000Y-104426000D01*
X150397000Y-101366000D02*
X150397000Y-101890000D01*
X150397000Y-103850000D02*
X150397000Y-104374000D01*
X150437000Y-101422000D02*
X150437000Y-101890000D01*
X150437000Y-103850000D02*
X150437000Y-104318000D01*
X150477000Y-101480000D02*
X150477000Y-101890000D01*
X150477000Y-103850000D02*
X150477000Y-104260000D01*
X150517000Y-101543000D02*
X150517000Y-101890000D01*
X150517000Y-103850000D02*
X150517000Y-104197000D01*
X150557000Y-101609000D02*
X150557000Y-104131000D01*
X150597000Y-101681000D02*
X150597000Y-104059000D01*
X150637000Y-101758000D02*
X150637000Y-103982000D01*
X150677000Y-101842000D02*
X150677000Y-103898000D01*
X150717000Y-101936000D02*
X150717000Y-103804000D01*
X150757000Y-102041000D02*
X150757000Y-103699000D01*
X150797000Y-102163000D02*
X150797000Y-103577000D01*
X150837000Y-102311000D02*
X150837000Y-103429000D01*
X150877000Y-102516000D02*
X150877000Y-103224000D01*
X144866000Y-102870000D02*
X146066000Y-102870000D01*
X145466000Y-102220000D02*
X145466000Y-103520000D01*
X159302000Y-100020000D02*
X159302000Y-103140000D01*
X157182000Y-100020000D02*
X157182000Y-103140000D01*
X159302000Y-100020000D02*
X159238000Y-100020000D01*
X157246000Y-100020000D02*
X157182000Y-100020000D01*
X159302000Y-103140000D02*
X159238000Y-103140000D01*
X157246000Y-103140000D02*
X157182000Y-103140000D01*
X123054000Y-88736000D02*
X123054000Y-88556000D01*
X123054000Y-88556000D02*
X126374000Y-88556000D01*
X126374000Y-88556000D02*
X126374000Y-88736000D01*
X123054000Y-91096000D02*
X123054000Y-91276000D01*
X123054000Y-91276000D02*
X126374000Y-91276000D01*
X126374000Y-91276000D02*
X126374000Y-91096000D01*
X123594000Y-88556000D02*
X123594000Y-91276000D01*
X133214000Y-88736000D02*
X133214000Y-88556000D01*
X133214000Y-88556000D02*
X136534000Y-88556000D01*
X136534000Y-88556000D02*
X136534000Y-88736000D01*
X133214000Y-91096000D02*
X133214000Y-91276000D01*
X133214000Y-91276000D02*
X136534000Y-91276000D01*
X136534000Y-91276000D02*
X136534000Y-91096000D01*
X133754000Y-88556000D02*
X133754000Y-91276000D01*
X122800000Y-101436000D02*
X122800000Y-101256000D01*
X122800000Y-101256000D02*
X126120000Y-101256000D01*
X126120000Y-101256000D02*
X126120000Y-101436000D01*
X122800000Y-103796000D02*
X122800000Y-103976000D01*
X122800000Y-103976000D02*
X126120000Y-103976000D01*
X126120000Y-103976000D02*
X126120000Y-103796000D01*
X123340000Y-101256000D02*
X123340000Y-103976000D01*
X133214000Y-101182000D02*
X133214000Y-101002000D01*
X133214000Y-101002000D02*
X136534000Y-101002000D01*
X136534000Y-101002000D02*
X136534000Y-101182000D01*
X133214000Y-103542000D02*
X133214000Y-103722000D01*
X133214000Y-103722000D02*
X136534000Y-103722000D01*
X136534000Y-103722000D02*
X136534000Y-103542000D01*
X133754000Y-101002000D02*
X133754000Y-103722000D01*
X154296000Y-89244000D02*
X154296000Y-89064000D01*
X154296000Y-89064000D02*
X157616000Y-89064000D01*
X157616000Y-89064000D02*
X157616000Y-89244000D01*
X154296000Y-91604000D02*
X154296000Y-91784000D01*
X154296000Y-91784000D02*
X157616000Y-91784000D01*
X157616000Y-91784000D02*
X157616000Y-91604000D01*
X154836000Y-89064000D02*
X154836000Y-91784000D01*
X103936000Y-98916000D02*
X116536000Y-98916000D01*
X116536000Y-98916000D02*
X116536000Y-88566000D01*
X116536000Y-88566000D02*
X115586000Y-88566000D01*
X115586000Y-88566000D02*
X115836000Y-88066000D01*
X115836000Y-88066000D02*
X113936000Y-88066000D01*
X113936000Y-88066000D02*
X113886000Y-88066000D01*
X113886000Y-88066000D02*
X114136000Y-88566000D01*
X114136000Y-88566000D02*
X108736000Y-88566000D01*
X108736000Y-88566000D02*
X109036000Y-88066000D01*
X109036000Y-88066000D02*
X103936000Y-88066000D01*
X103936000Y-88066000D02*
X103936000Y-98916000D01*
X164906000Y-92650000D02*
X162246000Y-92650000D01*
X164906000Y-95250000D02*
X164906000Y-92650000D01*
X162246000Y-95250000D02*
X162246000Y-92650000D01*
X164906000Y-95250000D02*
X162246000Y-95250000D01*
X164906000Y-96520000D02*
X164906000Y-97850000D01*
X164906000Y-97850000D02*
X163576000Y-97850000D01*
X155610000Y-86400000D02*
X155610000Y-83780000D01*
X155610000Y-83780000D02*
X149190000Y-83780000D01*
X149190000Y-83780000D02*
X149190000Y-86400000D01*
X149190000Y-86400000D02*
X155610000Y-86400000D01*
X156500000Y-85090000D02*
X155610000Y-85090000D01*
X148300000Y-85090000D02*
X149190000Y-85090000D01*
X140422000Y-90964000D02*
X150662000Y-90964000D01*
X140422000Y-95605000D02*
X150662000Y-95605000D01*
X140422000Y-90964000D02*
X140422000Y-95605000D01*
X150662000Y-90964000D02*
X150662000Y-95605000D01*
X140422000Y-92474000D02*
X150662000Y-92474000D01*
X143692000Y-90964000D02*
X143692000Y-92474000D01*
X147393000Y-90964000D02*
X147393000Y-92474000D01*
D13*
X148149334Y-99417143D02*
X148101715Y-99464762D01*
X147958858Y-99512381D01*
X147863620Y-99512381D01*
X147720762Y-99464762D01*
X147625524Y-99369524D01*
X147577905Y-99274286D01*
X147530286Y-99083810D01*
X147530286Y-98940952D01*
X147577905Y-98750476D01*
X147625524Y-98655238D01*
X147720762Y-98560000D01*
X147863620Y-98512381D01*
X147958858Y-98512381D01*
X148101715Y-98560000D01*
X148149334Y-98607619D01*
X149101715Y-99512381D02*
X148530286Y-99512381D01*
X148816000Y-99512381D02*
X148816000Y-98512381D01*
X148720762Y-98655238D01*
X148625524Y-98750476D01*
X148530286Y-98798095D01*
X160909143Y-101746666D02*
X160956762Y-101794285D01*
X161004381Y-101937142D01*
X161004381Y-102032380D01*
X160956762Y-102175238D01*
X160861524Y-102270476D01*
X160766286Y-102318095D01*
X160575810Y-102365714D01*
X160432952Y-102365714D01*
X160242476Y-102318095D01*
X160147238Y-102270476D01*
X160052000Y-102175238D01*
X160004381Y-102032380D01*
X160004381Y-101937142D01*
X160052000Y-101794285D01*
X160099619Y-101746666D01*
X160099619Y-101365714D02*
X160052000Y-101318095D01*
X160004381Y-101222857D01*
X160004381Y-100984761D01*
X160052000Y-100889523D01*
X160099619Y-100841904D01*
X160194857Y-100794285D01*
X160290095Y-100794285D01*
X160432952Y-100841904D01*
X161004381Y-101413333D01*
X161004381Y-100794285D01*
X123975905Y-88008381D02*
X123975905Y-87008381D01*
X124214000Y-87008381D01*
X124356858Y-87056000D01*
X124452096Y-87151238D01*
X124499715Y-87246476D01*
X124547334Y-87436952D01*
X124547334Y-87579810D01*
X124499715Y-87770286D01*
X124452096Y-87865524D01*
X124356858Y-87960762D01*
X124214000Y-88008381D01*
X123975905Y-88008381D01*
X125499715Y-88008381D02*
X124928286Y-88008381D01*
X125214000Y-88008381D02*
X125214000Y-87008381D01*
X125118762Y-87151238D01*
X125023524Y-87246476D01*
X124928286Y-87294095D01*
X134135905Y-88008381D02*
X134135905Y-87008381D01*
X134374000Y-87008381D01*
X134516858Y-87056000D01*
X134612096Y-87151238D01*
X134659715Y-87246476D01*
X134707334Y-87436952D01*
X134707334Y-87579810D01*
X134659715Y-87770286D01*
X134612096Y-87865524D01*
X134516858Y-87960762D01*
X134374000Y-88008381D01*
X134135905Y-88008381D01*
X135088286Y-87103619D02*
X135135905Y-87056000D01*
X135231143Y-87008381D01*
X135469239Y-87008381D01*
X135564477Y-87056000D01*
X135612096Y-87103619D01*
X135659715Y-87198857D01*
X135659715Y-87294095D01*
X135612096Y-87436952D01*
X135040667Y-88008381D01*
X135659715Y-88008381D01*
X123721905Y-100708381D02*
X123721905Y-99708381D01*
X123960000Y-99708381D01*
X124102858Y-99756000D01*
X124198096Y-99851238D01*
X124245715Y-99946476D01*
X124293334Y-100136952D01*
X124293334Y-100279810D01*
X124245715Y-100470286D01*
X124198096Y-100565524D01*
X124102858Y-100660762D01*
X123960000Y-100708381D01*
X123721905Y-100708381D01*
X124626667Y-99708381D02*
X125245715Y-99708381D01*
X124912381Y-100089333D01*
X125055239Y-100089333D01*
X125150477Y-100136952D01*
X125198096Y-100184571D01*
X125245715Y-100279810D01*
X125245715Y-100517905D01*
X125198096Y-100613143D01*
X125150477Y-100660762D01*
X125055239Y-100708381D01*
X124769524Y-100708381D01*
X124674286Y-100660762D01*
X124626667Y-100613143D01*
X134135905Y-100454381D02*
X134135905Y-99454381D01*
X134374000Y-99454381D01*
X134516858Y-99502000D01*
X134612096Y-99597238D01*
X134659715Y-99692476D01*
X134707334Y-99882952D01*
X134707334Y-100025810D01*
X134659715Y-100216286D01*
X134612096Y-100311524D01*
X134516858Y-100406762D01*
X134374000Y-100454381D01*
X134135905Y-100454381D01*
X135564477Y-99787714D02*
X135564477Y-100454381D01*
X135326381Y-99406762D02*
X135088286Y-100121048D01*
X135707334Y-100121048D01*
X155217905Y-88516381D02*
X155217905Y-87516381D01*
X155456000Y-87516381D01*
X155598858Y-87564000D01*
X155694096Y-87659238D01*
X155741715Y-87754476D01*
X155789334Y-87944952D01*
X155789334Y-88087810D01*
X155741715Y-88278286D01*
X155694096Y-88373524D01*
X155598858Y-88468762D01*
X155456000Y-88516381D01*
X155217905Y-88516381D01*
X156694096Y-87516381D02*
X156217905Y-87516381D01*
X156170286Y-87992571D01*
X156217905Y-87944952D01*
X156313143Y-87897333D01*
X156551239Y-87897333D01*
X156646477Y-87944952D01*
X156694096Y-87992571D01*
X156741715Y-88087810D01*
X156741715Y-88325905D01*
X156694096Y-88421143D01*
X156646477Y-88468762D01*
X156551239Y-88516381D01*
X156313143Y-88516381D01*
X156217905Y-88468762D01*
X156170286Y-88421143D01*
X102698381Y-98519333D02*
X103412667Y-98519333D01*
X103555524Y-98566953D01*
X103650762Y-98662191D01*
X103698381Y-98805048D01*
X103698381Y-98900286D01*
X103698381Y-97519333D02*
X103698381Y-98090762D01*
X103698381Y-97805048D02*
X102698381Y-97805048D01*
X102841238Y-97900286D01*
X102936476Y-97995524D01*
X102984095Y-98090762D01*
X163242667Y-98302381D02*
X163242667Y-99016667D01*
X163195047Y-99159524D01*
X163099809Y-99254762D01*
X162956952Y-99302381D01*
X162861714Y-99302381D01*
X163671238Y-98397619D02*
X163718857Y-98350000D01*
X163814095Y-98302381D01*
X164052191Y-98302381D01*
X164147429Y-98350000D01*
X164195048Y-98397619D01*
X164242667Y-98492857D01*
X164242667Y-98588095D01*
X164195048Y-98730952D01*
X163623619Y-99302381D01*
X164242667Y-99302381D01*
X152233334Y-87852381D02*
X151900000Y-87376190D01*
X151661905Y-87852381D02*
X151661905Y-86852381D01*
X152042858Y-86852381D01*
X152138096Y-86900000D01*
X152185715Y-86947619D01*
X152233334Y-87042857D01*
X152233334Y-87185714D01*
X152185715Y-87280952D01*
X152138096Y-87328571D01*
X152042858Y-87376190D01*
X151661905Y-87376190D01*
X153185715Y-87852381D02*
X152614286Y-87852381D01*
X152900000Y-87852381D02*
X152900000Y-86852381D01*
X152804762Y-86995238D01*
X152709524Y-87090476D01*
X152614286Y-87138095D01*
X144732476Y-89416381D02*
X145399143Y-90416381D01*
X145399143Y-89416381D02*
X144732476Y-90416381D01*
X146303905Y-90416381D02*
X145732476Y-90416381D01*
X146018190Y-90416381D02*
X146018190Y-89416381D01*
X145922952Y-89559238D01*
X145827714Y-89654476D01*
X145732476Y-89702095D01*
M02*
